<?xml version="1.0" encoding="UTF-8" standalone="no"?>
<svg width="420px" height="420px" viewBox="0 0 420 420" version="1.1" xmlns="http://www.w3.org/2000/svg" xmlns:xlink="http://www.w3.org/1999/xlink">
    <!-- Generator: Sketch 39.1 (31720) - http://www.bohemiancoding.com/sketch -->
    <title>Meh</title>
    <desc>Created with Sketch.</desc>
    <defs></defs>
    <g id="Symbols" stroke="none" stroke-width="1" fill="none" fill-rule="evenodd">
        <g id="Meh">
            <g id="Group-4" fill="#FFCA63">
                <path d="M210,420 C325.979797,420 420,325.979797 420,210 C420,94.0202025 325.979797,0 210,0 C94.0202025,0 0,94.0202025 0,210 C0,325.979797 94.0202025,420 210,420 Z" id="Oval"></path>
            </g>
            <path d="M185.680074,139.817362 C193.16604,147.181773 197.765625,157.173479 197.765625,168.177734 C197.765625,190.821409 178.290012,209.177734 154.265625,209.177734 C130.241238,209.177734 110.765625,190.821409 110.765625,168.177734 C110.765625,145.53406 130.241238,127.177734 154.265625,127.177734 C158.62939,127.177734 162.84308,127.78336 166.817239,128.910298 L156.484375,155.177734 L185.680074,139.817362 Z" id="Combined-Shape" fill="#3D1C05"></path>
            <path d="M333.898047,123.795553 C340.709429,130.496334 344.894531,139.587656 344.894531,149.600283 C344.894531,170.203465 327.173927,186.905644 305.314453,186.905644 C283.45498,186.905644 265.734375,170.203465 265.734375,149.600283 C265.734375,128.997101 283.45498,112.294922 305.314453,112.294922 C309.284986,112.294922 313.118966,112.845972 316.735002,113.871359 L307.333265,137.771754 L333.898047,123.795553 Z" id="Combined-Shape" fill="#3D1C05"></path>
            <path d="M131.0625,276.964844 L139.916533,263.861152 C143.319486,258.824887 151.009933,254.73594 157.075273,254.65998 C157.075273,254.65998 193.848124,255.207108 247.457031,247.933594 C301.065938,240.66008 342.056641,228.152344 342.056641,228.152344" id="Path-4" stroke="#3D1C05" stroke-width="20" stroke-linecap="round"></path>
            <path d="M160.386745,21.2978516 C165.716823,34.9091797 152.315514,51.8450526 152.315514,51.8450526 C149.293557,56.4551558 143.115041,62.6652401 138.501853,65.7246578 L97.5039062,92.9140625" id="Path-5" stroke="#D2901F" stroke-width="12" stroke-linecap="round"></path>
            <path d="M270.869141,29.8339844 C270.869141,29.8339844 279.224609,18.4589844 291.947266,18.4589844 C304.669922,18.4589844 317.773438,25.2460938 325.441406,32.7382812 C333.109375,40.2304688 336.039062,48.4609375 336.039062,48.4609375" id="Path-6" stroke="#D2901F" stroke-width="10" stroke-linecap="round"></path>
        </g>
    </g>
</svg>