<?xml version="1.0" encoding="UTF-8" standalone="no"?>
<svg width="420px" height="420px" viewBox="0 0 420 420" version="1.1" xmlns="http://www.w3.org/2000/svg" xmlns:xlink="http://www.w3.org/1999/xlink">
    <!-- Generator: Sketch 39.1 (31720) - http://www.bohemiancoding.com/sketch -->
    <title>Sob</title>
    <desc>Created with Sketch.</desc>
    <defs>
        <path d="M210,420 C325.979797,420 420,325.979797 420,210 C420,94.0202025 325.979797,0 210,0 C94.0202025,0 0,94.0202025 0,210 C0,325.979797 94.0202025,420 210,420 Z" id="path-1"></path>
    </defs>
    <g id="Symbols" stroke="none" stroke-width="1" fill="none" fill-rule="evenodd">
        <g id="Sob">
            <g id="Group-4">
                <mask id="mask-2" fill="white">
                    <use xlink:href="#path-1"></use>
                </mask>
                <use id="Oval" fill="#FFCA63" xlink:href="#path-1"></use>
                <path d="M135.932617,268.071289 C135.932617,268.071289 142.800866,287.658505 142.876953,299.726562 C142.95304,311.79462 135.894124,308.463828 136.279297,323.057617 C136.664469,337.651407 144.519348,338.779885 144.266602,352.378906 C144.013855,365.977927 135.071079,365.090626 135.248047,378.543945 C135.425015,391.997265 144.730561,395.754337 144.960937,405.163086 C145.191314,414.571835 136.321289,422.375977 136.321289,422.375977 L199.262695,422.896484 C199.262695,422.896484 207.009047,418.748828 205.839844,404.642578 C204.67064,390.536328 196.122135,387.571007 195.421875,376.557617 C194.721615,365.544227 202.772434,368.54739 202.606445,353.789062 C202.440457,339.030735 195.44465,340.593033 194.825195,323.505859 C194.205741,306.418686 200.656277,299.951678 200.217773,287.899414 C199.77927,275.847151 192.741211,266.227539 192.741211,266.227539 L164.808594,274.388672 L135.932617,268.071289 Z" id="Path-7" fill-opacity="0.75" fill="#0588FF" mask="url(#mask-2)"></path>
                <path d="M296.384805,247.907427 C296.384805,247.907427 303.253053,267.494643 303.329141,279.562701 C303.405228,291.630758 296.346312,288.299966 296.731484,302.893755 C297.116657,317.487545 304.971536,318.616023 304.718789,332.215044 C304.466042,345.814065 295.523266,344.926764 295.700234,358.380083 C295.877203,371.833403 305.182748,375.590475 305.413125,384.999224 C305.643501,394.407973 296.773476,402.212115 296.773476,402.212115 L359.714883,402.732622 C359.714883,402.732622 367.461235,398.584966 366.292031,384.478716 C365.122828,370.372466 356.574322,367.407145 355.874062,356.393755 C355.173803,345.380365 363.224621,348.383528 363.058633,333.625201 C362.892644,318.866873 355.896837,320.429171 355.277383,303.341997 C354.657928,286.254824 361.108464,279.787816 360.669961,267.735552 C360.231458,255.683289 353.132811,239.201172 353.132811,239.201172 L325.260781,254.22481 L296.384805,247.907427 Z" id="Path-7" fill-opacity="0.75" fill="#0588FF" mask="url(#mask-2)"></path>
                <path d="M115.695229,276.442217 C115.695229,276.442217 114.14955,238.067216 161.640542,232.204336 C209.131534,226.341456 215.117101,261.067617 215.117101,261.067617" id="Line" stroke="#3D1B05" stroke-width="15" stroke-linecap="round" stroke-linejoin="round" mask="url(#mask-2)" transform="translate(165.403278, 253.989863) scale(-1, -1) translate(-165.403278, -253.989863) "></path>
                <path d="M277.579923,246.860583 C277.579923,246.860583 274.412179,218.223483 308.466256,209.587334 C342.520333,200.951186 360.625567,224.927635 360.625567,224.927635" id="Line" stroke="#3D1B05" stroke-width="15" stroke-linecap="round" stroke-linejoin="round" mask="url(#mask-2)" transform="translate(319.063774, 227.285760) scale(-1, -1) rotate(12.000000) translate(-319.063774, -227.285760) "></path>
            </g>
            <path d="M228.798828,364.501955 L243.755865,338.135691 C248.178455,330.339551 255.873416,330.011301 260.942813,337.402188 L273.613281,355.875" id="Path-8" stroke="#3D1C05" stroke-width="15" stroke-linecap="round"></path>
        </g>
    </g>
</svg>