<?xml version="1.0" encoding="UTF-8" standalone="no"?>
<svg width="420px" height="420px" viewBox="0 0 420 420" version="1.1" xmlns="http://www.w3.org/2000/svg" xmlns:xlink="http://www.w3.org/1999/xlink">
    <!-- Generator: Sketch 39.1 (31720) - http://www.bohemiancoding.com/sketch -->
    <title>Yay</title>
    <desc>Created with Sketch.</desc>
    <defs>
        <path d="M10.5303121,111.053101 C3.51735501,96.0760789 11.1799814,82.455804 27.6135418,80.3856213 C27.6135418,80.3856213 73.3361363,76.6223035 154.468949,57.2355848 C225.58223,42.7160535 271.174554,-1.06949128 281.23848,16.8293348 C294.913507,48.099405 287.097855,162.50121 177.886918,187.091054 C41.0900425,215.801991 10.5303121,111.053101 10.5303121,111.053101 Z" id="path-1"></path>
    </defs>
    <g id="Symbols" stroke="none" stroke-width="1" fill="none" fill-rule="evenodd">
        <g id="Yay">
            <g id="Group-4">
                <path d="M210,420 C325.979797,420 420,325.979797 420,210 C420,94.0202025 325.979797,0 210,0 C94.0202025,0 0,94.0202025 0,210 C0,325.979797 94.0202025,420 210,420 Z" id="Oval" fill="#FFCA63"></path>
                <path d="M94.5,164.5 C94.5,164.5 93.0937509,108.289062 136.960938,98.6328125 C180.828124,88.9765628 195.5,141.5 195.5,141.5" id="Line" stroke="#3D1B05" stroke-width="15" stroke-linecap="round" stroke-linejoin="round"></path>
                <path d="M254.504372,136.052333 C254.504372,136.052333 253.300071,90.7394829 290.867594,82.9553715 C328.435118,75.1712602 341,117.511537 341,117.511537" id="Line" stroke="#3D1B05" stroke-width="15" stroke-linecap="round" stroke-linejoin="round"></path>
                <g id="Oval-3" transform="translate(86.000000, 138.000000)">
                    <mask id="mask-2" fill="white">
                        <use xlink:href="#path-1"></use>
                    </mask>
                    <use id="Mask" fill="#3D1C05" transform="translate(147.112495, 102.336080) rotate(5.000000) translate(-147.112495, -102.336080) " xlink:href="#path-1"></use>
                    <path d="M128.5,239 C167.436075,239 199.59375,235.22362 199.59375,204.019531 C199.59375,172.815443 162.710938,131.816406 121.234375,131.816406 C79.7578125,131.816406 53.0703125,143.936537 53.0703125,175.140625 C53.0703125,206.344713 89.5639251,239 128.5,239 Z" fill="#FF4545" mask="url(#mask-2)"></path>
                </g>
                <path d="M62.4299457,209.089069 C79.2746306,209.089069 92.9299457,201.925625 92.9299457,193.089069 C92.9299457,184.252513 79.2746306,177.089069 62.4299457,177.089069 C45.5852608,177.089069 31.9299457,184.252513 31.9299457,193.089069 C31.9299457,201.925625 45.5852608,209.089069 62.4299457,209.089069 Z" id="Oval-4" fill-opacity="0.25" fill="#FF3232" style="mix-blend-mode: multiply;" transform="translate(62.429946, 193.089069) rotate(-8.000000) translate(-62.429946, -193.089069) "></path>
                <path d="M380.135979,135.02305 C392.744953,135.02305 402.966547,130.108822 402.966547,124.046815 C402.966547,117.984809 392.744953,113.070581 380.135979,113.070581 C367.527004,113.070581 357.305411,117.984809 357.305411,124.046815 C357.305411,130.108822 367.527004,135.02305 380.135979,135.02305 Z" id="Oval-4" fill-opacity="0.249999985" fill="#FF3232" style="mix-blend-mode: multiply;" transform="translate(380.135979, 124.046815) rotate(-8.000000) translate(-380.135979, -124.046815) "></path>
            </g>
        </g>
    </g>
</svg>